<mxfile host="app.diagrams.net" modified="2024-02-20T13:07:00.055Z" agent="Mozilla/5.0 (Windows NT 10.0; Win64; x64; rv:122.0) Gecko/20100101 Firefox/122.0" etag="E5l9piigeHEQqD2t5wlA" version="23.0.2" type="device" pages="2">
  <diagram name="Page-1" id="THbx1exIyY35L9GEayRz">
    <mxGraphModel dx="1434" dy="726" grid="1" gridSize="10" guides="1" tooltips="1" connect="1" arrows="1" fold="1" page="1" pageScale="1" pageWidth="850" pageHeight="1100" math="0" shadow="0">
      <root>
        <mxCell id="0" />
        <mxCell id="1" parent="0" />
        <mxCell id="GfFK6c_sdEk6gU9OkCxs-1" value="" style="rounded=0;whiteSpace=wrap;html=1;" vertex="1" parent="1">
          <mxGeometry x="210" y="60" width="560" height="710" as="geometry" />
        </mxCell>
        <mxCell id="GfFK6c_sdEk6gU9OkCxs-11" value="div" style="rounded=0;whiteSpace=wrap;html=1;" vertex="1" parent="1">
          <mxGeometry x="230" y="70" width="520" height="100" as="geometry" />
        </mxCell>
        <mxCell id="GfFK6c_sdEk6gU9OkCxs-6" value="zeze" style="whiteSpace=wrap;html=1;aspect=fixed;" vertex="1" parent="1">
          <mxGeometry x="230" y="170" width="520" height="520" as="geometry" />
        </mxCell>
        <mxCell id="GfFK6c_sdEk6gU9OkCxs-2" value="&amp;lt;p&amp;gt;available&amp;lt;/p&amp;gt;" style="rounded=0;whiteSpace=wrap;html=1;" vertex="1" parent="1">
          <mxGeometry x="260" y="110" width="140" height="60" as="geometry" />
        </mxCell>
        <mxCell id="GfFK6c_sdEk6gU9OkCxs-3" value="&amp;lt;p&amp;gt;&amp;lt;/p&amp;gt;" style="rounded=0;whiteSpace=wrap;html=1;" vertex="1" parent="1">
          <mxGeometry x="600" y="110" width="110" height="60" as="geometry" />
        </mxCell>
        <mxCell id="GfFK6c_sdEk6gU9OkCxs-9" value="IMG" style="ellipse;whiteSpace=wrap;html=1;aspect=fixed;" vertex="1" parent="1">
          <mxGeometry x="360" y="170" width="260" height="260" as="geometry" />
        </mxCell>
        <mxCell id="GfFK6c_sdEk6gU9OkCxs-13" value="DIV" style="text;html=1;align=center;verticalAlign=middle;resizable=0;points=[];autosize=1;strokeColor=none;fillColor=none;fontSize=23;" vertex="1" parent="1">
          <mxGeometry x="260" y="210" width="60" height="40" as="geometry" />
        </mxCell>
        <mxCell id="GfFK6c_sdEk6gU9OkCxs-17" value="p" style="rounded=0;whiteSpace=wrap;html=1;" vertex="1" parent="1">
          <mxGeometry x="320" y="430" width="300" height="30" as="geometry" />
        </mxCell>
        <mxCell id="GfFK6c_sdEk6gU9OkCxs-18" value="p" style="rounded=0;whiteSpace=wrap;html=1;" vertex="1" parent="1">
          <mxGeometry x="320" y="460" width="300" height="30" as="geometry" />
        </mxCell>
        <mxCell id="GfFK6c_sdEk6gU9OkCxs-19" value="div " style="rounded=0;whiteSpace=wrap;html=1;" vertex="1" parent="1">
          <mxGeometry x="320" y="490" width="300" height="60" as="geometry" />
        </mxCell>
        <mxCell id="GfFK6c_sdEk6gU9OkCxs-20" value="" style="rounded=0;whiteSpace=wrap;html=1;" vertex="1" parent="1">
          <mxGeometry x="240" y="560" width="500" height="60" as="geometry" />
        </mxCell>
        <mxCell id="GfFK6c_sdEk6gU9OkCxs-22" value="p" style="rounded=0;whiteSpace=wrap;html=1;" vertex="1" parent="1">
          <mxGeometry x="340" y="505" width="120" height="30" as="geometry" />
        </mxCell>
        <mxCell id="GfFK6c_sdEk6gU9OkCxs-23" value="span" style="rounded=0;whiteSpace=wrap;html=1;" vertex="1" parent="1">
          <mxGeometry x="550" y="505" width="40" height="30" as="geometry" />
        </mxCell>
        <mxCell id="GfFK6c_sdEk6gU9OkCxs-24" value="p" style="rounded=0;whiteSpace=wrap;html=1;" vertex="1" parent="1">
          <mxGeometry x="320" y="575" width="50" height="30" as="geometry" />
        </mxCell>
        <mxCell id="GfFK6c_sdEk6gU9OkCxs-27" value="p" style="rounded=0;whiteSpace=wrap;html=1;" vertex="1" parent="1">
          <mxGeometry x="465" y="575" width="50" height="30" as="geometry" />
        </mxCell>
        <mxCell id="GfFK6c_sdEk6gU9OkCxs-29" value="p" style="rounded=0;whiteSpace=wrap;html=1;" vertex="1" parent="1">
          <mxGeometry x="610" y="575" width="50" height="30" as="geometry" />
        </mxCell>
        <mxCell id="GfFK6c_sdEk6gU9OkCxs-30" value="p" style="rounded=0;whiteSpace=wrap;html=1;" vertex="1" parent="1">
          <mxGeometry x="240" y="620" width="500" height="60" as="geometry" />
        </mxCell>
        <mxCell id="GfFK6c_sdEk6gU9OkCxs-31" value="div" style="rounded=0;whiteSpace=wrap;html=1;" vertex="1" parent="1">
          <mxGeometry x="230" y="700" width="520" height="60" as="geometry" />
        </mxCell>
        <mxCell id="GfFK6c_sdEk6gU9OkCxs-32" value="p" style="rounded=0;whiteSpace=wrap;html=1;" vertex="1" parent="1">
          <mxGeometry x="260" y="710" width="40" height="40" as="geometry" />
        </mxCell>
        <mxCell id="GfFK6c_sdEk6gU9OkCxs-33" value="p" style="rounded=0;whiteSpace=wrap;html=1;" vertex="1" parent="1">
          <mxGeometry x="690" y="710" width="40" height="40" as="geometry" />
        </mxCell>
      </root>
    </mxGraphModel>
  </diagram>
  <diagram id="Fa8ezvVu2yXSOYWQKGOI" name="Page-2">
    <mxGraphModel dx="1434" dy="726" grid="1" gridSize="10" guides="1" tooltips="1" connect="1" arrows="1" fold="1" page="1" pageScale="1" pageWidth="850" pageHeight="1100" math="0" shadow="0">
      <root>
        <mxCell id="0" />
        <mxCell id="1" parent="0" />
        <mxCell id="Zm7NzBoMqyQnF5rfQUaU-1" value="" style="rounded=0;whiteSpace=wrap;html=1;" vertex="1" parent="1">
          <mxGeometry x="90" y="30" width="740" height="670" as="geometry" />
        </mxCell>
        <mxCell id="Zm7NzBoMqyQnF5rfQUaU-2" value="" style="rounded=0;whiteSpace=wrap;html=1;" vertex="1" parent="1">
          <mxGeometry x="110" y="70" width="700" height="130" as="geometry" />
        </mxCell>
        <mxCell id="Zm7NzBoMqyQnF5rfQUaU-3" value="" style="rounded=0;whiteSpace=wrap;html=1;" vertex="1" parent="1">
          <mxGeometry x="110" y="230" width="700" height="450" as="geometry" />
        </mxCell>
        <mxCell id="Zm7NzBoMqyQnF5rfQUaU-4" value="" style="rounded=0;whiteSpace=wrap;html=1;" vertex="1" parent="1">
          <mxGeometry x="140" y="250" width="120" height="160" as="geometry" />
        </mxCell>
        <mxCell id="Zm7NzBoMqyQnF5rfQUaU-5" value="" style="rounded=0;whiteSpace=wrap;html=1;" vertex="1" parent="1">
          <mxGeometry x="280" y="250" width="120" height="160" as="geometry" />
        </mxCell>
        <mxCell id="Zm7NzBoMqyQnF5rfQUaU-7" value="" style="rounded=0;whiteSpace=wrap;html=1;" vertex="1" parent="1">
          <mxGeometry x="420" y="250" width="120" height="160" as="geometry" />
        </mxCell>
        <mxCell id="Zm7NzBoMqyQnF5rfQUaU-8" value="" style="rounded=0;whiteSpace=wrap;html=1;" vertex="1" parent="1">
          <mxGeometry x="560" y="250" width="120" height="160" as="geometry" />
        </mxCell>
        <mxCell id="Zm7NzBoMqyQnF5rfQUaU-9" value="" style="rounded=0;whiteSpace=wrap;html=1;" vertex="1" parent="1">
          <mxGeometry x="140" y="420" width="120" height="160" as="geometry" />
        </mxCell>
        <mxCell id="Zm7NzBoMqyQnF5rfQUaU-11" value="div" style="rounded=0;whiteSpace=wrap;html=1;" vertex="1" parent="1">
          <mxGeometry x="150" y="105" width="110" height="60" as="geometry" />
        </mxCell>
        <mxCell id="Zm7NzBoMqyQnF5rfQUaU-13" value="div" style="rounded=0;whiteSpace=wrap;html=1;" vertex="1" parent="1">
          <mxGeometry x="285" y="105" width="110" height="60" as="geometry" />
        </mxCell>
        <mxCell id="Zm7NzBoMqyQnF5rfQUaU-16" value="div" style="rounded=0;whiteSpace=wrap;html=1;" vertex="1" parent="1">
          <mxGeometry x="420" y="105" width="110" height="60" as="geometry" />
        </mxCell>
        <mxCell id="Zm7NzBoMqyQnF5rfQUaU-17" value="div" style="rounded=0;whiteSpace=wrap;html=1;" vertex="1" parent="1">
          <mxGeometry x="550" y="105" width="110" height="60" as="geometry" />
        </mxCell>
        <mxCell id="Zm7NzBoMqyQnF5rfQUaU-18" value="div" style="rounded=0;whiteSpace=wrap;html=1;" vertex="1" parent="1">
          <mxGeometry x="680" y="105" width="110" height="60" as="geometry" />
        </mxCell>
        <mxCell id="Zm7NzBoMqyQnF5rfQUaU-19" value="input" style="rounded=0;whiteSpace=wrap;html=1;" vertex="1" parent="1">
          <mxGeometry x="155" y="117.5" width="90" height="35" as="geometry" />
        </mxCell>
        <mxCell id="Zm7NzBoMqyQnF5rfQUaU-22" value="div" style="rounded=0;whiteSpace=wrap;html=1;" vertex="1" parent="1">
          <mxGeometry x="220" y="123.75" width="20" height="22.5" as="geometry" />
        </mxCell>
        <mxCell id="Zm7NzBoMqyQnF5rfQUaU-23" value="span" style="rounded=0;whiteSpace=wrap;html=1;" vertex="1" parent="1">
          <mxGeometry x="620" y="120" width="30" height="30" as="geometry" />
        </mxCell>
        <mxCell id="Zm7NzBoMqyQnF5rfQUaU-25" value="span" style="rounded=0;whiteSpace=wrap;html=1;" vertex="1" parent="1">
          <mxGeometry x="750" y="116.25" width="30" height="30" as="geometry" />
        </mxCell>
      </root>
    </mxGraphModel>
  </diagram>
</mxfile>
